# xmcd
#
# Track frame offsets:
#	150
#	13246
#	26399
#	39458
#	51828
#	65664
#	80369
#	92241
#	103663
#	116775
#	130510
#	173140
#	188941
#	202358
#	224203
#	243326
#	254595
#	269690
#
# Disc length: 3763 seconds
#
# Revision: 1
# Processed by: cddbd v1.5.2PL0 Copyright (c) Steve Scherf et al.
# Submitted via: audiograbber 1.83.01
#
DISCID=170eb112
DTITLE=Various Artist - Classic Blues Vol. 06
DYEAR=2000
DGENRE=Blues
TTITLE0=Jimmy Rushing - Jimmy's Blues
TTITLE1=Wynonie Harris - Here Comes The Blues
TTITLE2=T-Bone Walker - Mean Old World
TTITLE3=Roy Milton - Big Fat Mama
TTITLE4=Willie Dixon - If The Sea Was Wiskey
TTITLE5=Ivory Joe Hunter - Blues At Sunrise
TTITLE6=Robert Johnson - Come On In My Kitchen
TTITLE7=Lightning Hopkins - Let Me Play With You're Poodle
TTITLE8=Dinah Washington - Rich Man's Blues
TTITLE9=Big Bill Broonzy - Key To The Highway
TTITLE10=Albert King - Stormy Monday Blues
TTITLE11=Clarence Edwards - Rocky Mountains
TTITLE12=Bessie Smith - Yellow Dog Blues
TTITLE13=The Mighty Houserockers ft Les Wilson - Blue Light
TTITLE14=Sunnyland Slim - Soft and Mellow Stella
TTITLE15=Robert Johnson - Stones In My Pathway
TTITLE16=Isaac Scott - Help
TTITLE17=Lucille Brogan - Reckless Woman
EXTD=CLB 47506 Digimode Entertainment Ltd
EXTT0=
EXTT1=
EXTT2=
EXTT3=
EXTT4=
EXTT5=
EXTT6=
EXTT7=
EXTT8=
EXTT9=
EXTT10=
EXTT11=
EXTT12=
EXTT13=
EXTT14=
EXTT15=
EXTT16=
EXTT17=
PLAYORDER=
